<svg xmlns="http://www.w3.org/2000/svg" id="_레이어_1" version="1.1" viewBox="0 0 4096 2731"><defs><style>.st1{fill:#ff0}</style></defs><path d="M0 0h4096v2731H0" style="fill:#ee1c25"/><path d="m832.53 732.09 92 283.12-240.84-174.97-240.85 174.97 92-283.12-240.85-174.97h297.7l92-283.12 91.99 283.12h297.69zM1503.18 286.43l-97.25 22.39-8.77 99.42-51.35-85.59-97.25 22.39 65.51-75.28-51.34-85.58 91.85 39.06 65.52-75.29-8.76 99.42zM1760.54 611.34l-98.33-17.11-46.65 88.22-14.12-98.8-98.32-17.11 89.6-43.95-14.12-98.8 69.49 71.64 89.61-43.96-46.65 88.23zM1689.53 971.01l34.23 93.76-82.8-55.74-78.58 61.52 27.42-95.96-82.8-55.74 99.75-3.58 27.41-95.95 34.23 93.75 99.73-3.58zM1503.5 1235.91l-96.25 26.4-4.63 99.69-54.85-83.38-96.25 26.4 62.35-77.93-54.86-83.38 93.39 35.21 62.35-77.93-4.63 99.7z" class="st1"/></svg>