<svg xmlns="http://www.w3.org/2000/svg" width="1000" height="512.61798" viewBox="0 0 999.99999 512.61798"><path d="M0 512.618h1000V0H0Z" style="fill:#222c65;fill-opacity:1;fill-rule:nonzero;stroke:none;stroke-width:1.31439"/><path d="m451.672 0-154.97 78.076V0H209.78v78.076L54.811 0H.001v31.15l110.016 55.6H0v171.925h55.642l154.316-77.747v77.747h86.569v-77.743l154.305 77.743h55.477v-31.31l-109.69-55.436h109.69V86.75H396.467L506.31 31.238V0ZM.09 171.925h110.106L.09 227.522Z" style="fill:#fff;fill-opacity:1;fill-rule:nonzero;stroke:none;stroke-width:1.31439"/><path d="M471.782 0 304.196 86.75h32.42L506.702 0Z" style="fill:#e31d2d;fill-opacity:1;fill-rule:nonzero;stroke:none;stroke-width:1.31439"/><path d="M226.34 0v104.887L.002 104.89v49.684l226.34.005v104.096h54.417V154.579l225.55-.005.12-49.684-225.67-.003V0Z" style="fill:#e31d2d;fill-opacity:1;fill-rule:nonzero;stroke:none;stroke-width:1.31439"/><path d="m326.154 402.123-45.908 5.426 4.583 45.994-32.863-32.502-33.102 32.26 4.922-45.96-45.86-5.77 39-24.805-24.082-39.453 43.71 15.029 15.83-43.43 15.504 43.545 43.822-14.701-24.378 39.271zM802.996 440.751l-23.738 3.017 2.581 23.785-17.155-16.677-16.989 16.848 2.341-23.812-23.763-2.776 20.075-13.016-12.643-20.31 22.691 7.579 7.997-22.549 8.22 22.468 22.616-7.808-12.44 20.438zM802.283 304.893l3.107-15.126-11.403-10.41 15.344-1.72 6.377-14.064 6.376 14.064 15.347 1.718-11.406 10.412 3.108 15.126-13.425-7.63zM672.325 235.403l-23.547 2.575 2.142 23.588-16.694-16.802-17.105 16.383 2.727-23.528-23.472-3.162 20.094-12.535-12.163-20.324 22.33 7.896 8.306-22.183 7.75 22.383 22.52-7.339-12.668 20.016zM922.44 197.357l-24.218 3.077 2.633 24.268-17.505-17.014-17.332 17.189 2.388-24.294-24.246-2.834 20.48-13.28-12.896-20.722 23.151 7.735 8.159-23.007 8.388 22.923 23.074-7.965-12.694 20.851zM802.898 100.491l-24.026 2.628 2.186 24.068-17.032-17.144-17.454 16.714 2.784-24.006-23.95-3.224 20.504-12.792L733.5 66l22.783 8.056 8.474-22.632 7.906 22.836 22.978-7.485-12.924 20.42z" style="fill:#fff;fill-opacity:1;fill-rule:nonzero;stroke:#fff;stroke-width:1.11723;stroke-linecap:butt;stroke-linejoin:miter;stroke-miterlimit:3.864;stroke-dasharray:none;stroke-opacity:1"/><path d="M171.002 171.925 0 258.675h34.881l167.585-86.75zM506.306 258.68 338.72 171.929h39.037l128.55 65.852zM0 0v20.899L128.55 86.75h39.037z" style="fill:#e31d2d;fill-opacity:1;fill-rule:nonzero;stroke:none;stroke-width:1.31439"/></svg>